<?xml version="1.0" encoding="utf-8"?>
<!-- Generator: Adobe Illustrator 16.0.0, SVG Export Plug-In . SVG Version: 6.00 Build 0)  -->
<!DOCTYPE svg PUBLIC "-//W3C//DTD SVG 1.1//EN" "http://www.w3.org/Graphics/SVG/1.1/DTD/svg11.dtd">
<svg version="1.1" id="Layer_1" xmlns="http://www.w3.org/2000/svg" xmlns:xlink="http://www.w3.org/1999/xlink" x="0px" y="0px"
	 width="20px" height="20px" viewBox="0 0 20 20" enable-background="new 0 0 20 20" xml:space="preserve">
<g>
	<path fill="#FFFFFF" d="M0,0c6.875,1,11.875,4.688,13,7s1.812,4.625,2.5,6.625s0.562,4.875,1.125,6"/>
	<path fill="#FFFFFF" d="M16.625,20.125c-0.183,0-0.359-0.102-0.447-0.276c-0.316-0.634-0.43-1.633-0.56-2.791
		c-0.122-1.081-0.26-2.308-0.591-3.271c-0.133-0.386-0.266-0.784-0.401-1.191c-0.554-1.659-1.182-3.539-2.075-5.377
		C11.478,5.014,6.494,1.45-0.072,0.495c-0.273-0.04-0.463-0.293-0.423-0.566c0.04-0.273,0.29-0.468,0.566-0.423
		c7.223,1.05,12.252,4.962,13.377,7.276c0.923,1.897,1.562,3.81,2.125,5.498c0.135,0.404,0.267,0.8,0.398,1.184
		c0.367,1.066,0.512,2.351,0.639,3.483c0.115,1.019,0.224,1.98,0.461,2.455c0.123,0.247,0.023,0.547-0.224,0.671
		C16.776,20.108,16.7,20.125,16.625,20.125z"/>
</g>
</svg>
