<?xml version="1.0" encoding="utf-8"?>
<!-- Generator: Adobe Illustrator 16.0.0, SVG Export Plug-In . SVG Version: 6.00 Build 0)  -->
<!DOCTYPE svg PUBLIC "-//W3C//DTD SVG 1.1//EN" "http://www.w3.org/Graphics/SVG/1.1/DTD/svg11.dtd">
<svg version="1.1" id="Layer_1" xmlns="http://www.w3.org/2000/svg" xmlns:xlink="http://www.w3.org/1999/xlink" x="0px" y="0px"
	 width="440.55px" height="278.02px" viewBox="0 0 440.55 278.02" enable-background="new 0 0 440.55 278.02" xml:space="preserve">
<g>
	<g>
		<path fill="#FFFFFF" d="M41.591,82.666l-6.057,14.133L0,82.262l2.827-6.73V54.266L18.307,42.96v30.014L41.591,82.666z
			 M18.307,43.095L29.881,32.73l13.863,15.615l-11.71,10.364L18.307,43.095z"/>
		<path fill="#FFFFFF" d="M80.734,91.039c1.073-0.153,1.169-0.877,2.248-1.292c1.079-0.416,1.439-1.405,2.069-2.035
			c0.629-0.63,1.979-1.188,1.979-1.188s0.721,0.02,1.17-0.431s2.338-2.339,2.338-2.339l1.079-0.629c0,0,0.588-0.604,0.732-0.469
			l-3.257-3.044V48.115l10.903,5.249V76.87c0.223-0.235,0.483-0.49,0.796-0.762c1.35-1.169,1.439-0.45,1.439-0.45
			s0.809-1.979,1.079-1.979s0.81-0.899,0.81-0.899s-0.18-0.181,0.449-0.9c0.631-0.719,0.99-1.114,0.99-1.114s0.825-0.321,1.168,0
			c0.344,0.322,1.227,1.113,1.963,1.833c0.736,0.72,1.697,1.71,1.457,2.429c-0.242,0.72,1.067,1.654,1.067,1.654
			s0.679,0.485,1.029,0.735s1.591,0.31,1.591,0.31l1.259,0.719l0.518,0.346V48.25l10.766,5.115v32.572l0.441,0.496l0.688,0.379
			c0,0,1.169,0.269,1.8,0.628c0.629,0.359,2.607,1.439,2.607,1.439l0.719,0.809l1.801,0.63c0,0,0.99,0.09,2.248,0.9
			c1.26,0.81,1.26,0.81,1.26,0.81l1.918,0.899l0.129,0.192l7.658-6.778l-5.654-6.325V43.403l-20.188-9.555l-6.191,13.057v-3.502
			L95.42,33.849l-6.327,13.324V32.906l-15.61,8.75v44.818l5.388,4.942C79.772,91.221,80.471,91.076,80.734,91.039z"/>
		<g>
			<polygon fill="#FFFFFF" points="69.499,32.355 50.925,24.279 45.136,38.68 63.71,46.622 			"/>
			<path fill="#FFFFFF" d="M59.327,99.044c1.17-0.36,1.619-0.54,1.889-0.45c0.27,0.09-1.08,0.81,0.27,0.09s3.328-3.058,4.139-3.058
				c0.81,0,1.708,0,1.708,0l0.989-1.169l0.72-0.45h0.45l0.941-0.448l-6.99-5.211V50.794l-15.479,5.787v39.571l7.638,5.595
				C57.325,100.211,58.39,99.333,59.327,99.044z"/>
		</g>
		<path fill="#FFFFFF" d="M433.282,88.347V52.274l-15.615-9.959l-11.308,17.093V42.045l-15.61,8.75v44.262
			c2.773,0.614,6.461,1.467,6.461,1.467l1.889,0.899h0.449l0.721,0.45l0.989,1.169c0,0,0.899,0,1.709,0
			c0.662,0,2.104,1.562,3.346,2.525l6.376-7.029l-6.329-5.654V65.196l5.654-8.212l5.786,3.636v33.783l13.73,11.71l9.02-12.249
			L433.282,88.347z"/>
		<path fill="#FFFFFF" d="M352.077,82.81l1.42-0.948l1.258-0.719c0,0,1.24-0.059,1.591-0.31c0.351-0.25,1.03-0.736,1.03-0.736
			s1.309-0.934,1.067-1.653c-0.24-0.719,0.72-1.709,1.456-2.429c0.736-0.72,1.619-1.512,1.963-1.833s1.169,0,1.169,0
			s0.358,0.395,0.989,1.114c0.629,0.719,0.448,0.899,0.448,0.899s0.54,0.9,0.811,0.9c0.178,0,0.59,0.86,0.851,1.446l0.389,0.334
			c0.174-0.068,0.533,0.001,1.279,0.647c1.055,0.915,1.556,1.658,1.726,1.941l0.609,0.525l4.326,3.201c0,0,1.638,1.015,1.782,0.88
			c0.036-0.034,0.101-0.021,0.175,0.016l8.56-11.58l-7.268-5.519v-36.07l-15.614-9.961L351.19,35.878h-15.477v41.994l13.491,6.947
			L352.077,82.81z M351.19,40.856l3.903-4.307l7.134,4.711v28.132l-3.77,5.383l-7.268-3.769V40.856z"/>
		<g>
			<polygon fill="#FFFFFF" points="331.246,22.756 312.674,14.681 306.885,29.082 325.458,37.024 			"/>
			<path fill="#FFFFFF" d="M320.484,100.843l4.159-3.103l5.467-2.835c0,0,0.189,0.187,0.604,0.174l-5.523-4.117V41.196
				l-15.479,5.788v51.782l7.444,5.454L320.484,100.843z"/>
		</g>
		<path fill="#FFFFFF" d="M271.08,84.21c1.255,0.844,4.869,3.361,5.616,4.856c0.869,1.736,5.328,4.854,8.1,7.505l9.029-12.349
			l-7.268-5.385V45.053l9.692,9.019l10.635-11.172l-9.694-9.152l-10.633,11.037L276.059,32.67l-11.708,10.095l6.729,7.807V84.21z"/>
		<path fill="#FFFFFF" d="M256.45,33.569h-0.137l11.037-9.825L253.623,3.958l-11.576,10.23l-15.611,11.306V46.76l-2.636,6.274
			c0.852-0.226,0.758-0.186,0.758-0.186l9.804,2.21l3.522,4.25l3.089,1.259c0.835,0.339,1.126-0.379,2.203-0.199
			c1.081,0.18,3.419,0.719,3.419,0.719l4.497,2.339c0,0,3.419,1.088,3.958,1.448s2.519,2.15,2.519,2.15l1.706,1.003l5.926-14.132
			l-22.076-9.155L256.45,33.569z M242.047,41.375V14.323l11.712,17.093L242.047,41.375z"/>
		<path fill="#FFFFFF" d="M207.079,62.453c0.204,0.407,0.607,0.891,1.139,1.427c0.979-0.264,1.971-0.605,2.668-1.354
			c0.605-0.649,2.461-2.476,3.148-3.013c2.878-2.249,3.508-3.193,3.508-3.193s0.636-0.774,1.238-1.396l-2.518-2.818V15.493
			l-20.189-9.554l-6.191,13.057v-3.502l-20.188-9.554l-6.327,13.323V4.997l-15.613,8.75v63.896l3.902,3.578
			c0.979-0.614,2.383-1.526,3.825-2.577c2.013-1.466,4.858-2.117,6.947-3.662c1.063-0.787,2.001-1.659,2.798-2.465l-1.859-1.738
			V20.205l10.9,5.25v32.572l4.377,4.932c0.656-0.97,1.507-2.153,3.318-3.835c1.146-1.065,1.797-1.662,2.141-1.969
			c0.618-0.751,1.709-2.311,1.49-3.781c-0.255-1.714,2.512-3.564,4.289-7.018V20.341l10.768,5.114v30.91l0.377,0.943
			C201.026,57.308,206.171,60.637,207.079,62.453z"/>
	</g>
	<g>
		<path fill="#FFFFFF" d="M187.792,157.584l-6.063-12.298l-1.86-1.258v-0.83h6.579v0.83l-1.087,1.172l3.031,6.492l0.372-0.486
			l0.171-0.344l2.574-6.148l-1.373-0.744v-0.771h5.205v0.771l-1.973,1.03l-5.062,12.584H187.792z"/>
		<path fill="#FFFFFF" d="M196.601,156.669l1.603-0.629v-6.35l2.173-6.492h1.23v12.984l1.573,0.486v0.829h-6.579V156.669z
			 M197.746,138.079c0-0.458,1.429-1.745,1.944-1.745c0.486,0,1.945,1.287,1.945,1.745c0,0.486-1.459,1.745-1.945,1.745
			C199.175,139.824,197.746,138.565,197.746,138.079z"/>
		<path fill="#FFFFFF" d="M205.754,156.755l0.458-4.146h0.771l1.573,3.46c2.46,0.571,4.719,0.028,4.719-1.745
			c0-3.146-7.121-2.316-7.121-7.379c0-3.774,4.519-4.031,4.948-4.031c1.086,0,2.087,0.342,2.889,0.715l1.744-0.43l0.429,0.286
			l-1.372,4.318h-0.602l-1.144-2.917c-0.143-0.057-0.314-0.114-0.485-0.143c-1.174-0.287-2.918-0.144-2.918,1.458
			c0,3.433,6.836,2.202,6.836,6.95c0,2.717-2.289,4.633-5.35,4.633C208.07,157.784,205.754,156.755,205.754,156.755z"/>
		<path fill="#FFFFFF" d="M220.685,145.315l-1.63-0.486v-0.83l4.69-0.801h0.343v9.553c0,1.516,0.371,2.316,1.774,2.26
			c2-0.172,3.603-1.945,4.174-2.604v-7.092l-1.63-0.486v-0.83l4.69-0.801h0.344v11.812l1.773,0.371v0.772l-4.805,1.658h-0.373
			v-3.261c-0.686,0.943-2.631,3.232-5.062,3.232c-1.745,0-2.545-0.744-3.317-1.573c-1.115-1.2-0.973-3.46-0.973-3.46V145.315z"/>
		<path fill="#FFFFFF" d="M244.28,144.714c-0.915-0.143-1.744-0.057-2.631,0.286c-0.285,0.086-0.515,0.229-0.715,0.372l-0.343,2.603
			l-0.715,0.372l-2.06-3.004l0.057-0.027c2.489-1.402,4.948-2.402,6.464-2.402c2.374,0,3.46,0.629,4.233,1.457
			c1.115,1.201,0.972,3.575,0.972,3.575v7.065l1.774,0.371v0.772l-4.807,1.658h-0.371v-2.202c-0.829,0.943-1.973,1.945-3.289,2.116
			c-3.117,0.4-4.576-1.344-4.947-2.974c-0.629-2.746,1.773-4.548,4.434-5.377c1.915-0.601,3.174-0.715,3.803-0.772v-0.658
			C246.14,146.431,245.711,144.972,244.28,144.714z M246.14,153.608v-3.432c-1.173,0.058-3.774,0.457-4.919,2.346
			c-0.915,1.543,0.401,2.773,1.487,2.889C244.396,155.581,245.482,154.581,246.14,153.608z"/>
		<path fill="#FFFFFF" d="M253.922,156.669l1.601-0.629v-18.762l-1.63-0.486v-0.858l4.69-1.315h0.344v21.564l1.572,0.486v0.829
			h-6.577V156.669z"/>
		<path fill="#FFFFFF" d="M191.152,187.79c-3.06,0-5.378-1.029-5.378-1.029l0.459-4.146h0.772l1.573,3.46
			c2.459,0.572,4.719,0.028,4.719-1.744c0-3.146-7.122-2.317-7.122-7.379c0-3.774,4.519-4.032,4.948-4.032
			c0.457,0,0.886,0.058,1.286,0.144c-0.199-0.573-0.314-1.202-0.257-1.831c0.314-3.461,3.718-5.605,6.75-5.605
			c1.973,0,4.976,0.743,5.891,2.574v4.977h4.262l-0.172,1.144l-4.09,0.972v5.863c0.028,0,0,0.229,0,0.571v1.116
			c0.028,0.801,0.114,1.658,0.4,2.116c0.601,0.915,1.487,1.058,3.031,0.4c0.43-0.172,0.744-0.486,0.744-0.486l0.943,1.029
			c0,0-0.686,0.973-1.744,1.459s-2.918,0.687-4.662-0.144c-2.173-1.029-2.116-3.603-2.116-3.917v-8.18l-1.915-0.83v-1.114h1.915
			l1.659-3.948h0.029c-0.573-1.571-2.518-2.173-4.176-2.173c-2.632,0-4.405,2.116-4.405,4.176c0,0.972,0.572,1.573,1.259,1.974
			l0.429,0.286l-1.373,4.318h-0.6l-1.144-2.918c-0.144-0.058-0.315-0.114-0.487-0.143c-1.172-0.286-2.917-0.144-2.917,1.459
			c0,3.431,6.835,2.202,6.835,6.949C196.5,185.874,194.213,187.79,191.152,187.79z"/>
		<path fill="#FFFFFF" d="M210.202,180.555c0-5.291,3.661-7.636,6.863-7.636c3.433,0,7.036,2.373,7.036,7.636
			c0,4.633-3.804,7.235-7.007,7.235C213.662,187.79,210.202,185.217,210.202,180.555z M220.44,180.384
			c-0.258-4.892-2.03-5.979-3.66-5.893c-1.602,0.086-3.089,1.345-2.831,6.235c0.199,4.347,1.83,5.52,3.431,5.434
			C218.954,186.103,220.67,184.759,220.44,180.384z"/>
		<path fill="#FFFFFF" d="M225.562,186.675l1.602-0.629v-10.725l-1.631-0.487v-0.828l4.69-0.801h0.344v2.945
			c0.687-0.944,2.63-3.231,5.062-3.231c0.887,0,1.545,0.343,2.06,0.601l-1.602,4.175h-0.973l-0.571-2.116
			c-1.917,0.258-3.432,2.088-3.976,2.717v7.894l1.573,0.486v0.829h-6.578V186.675z"/>
		<path fill="#FFFFFF" d="M246.24,196.228l-3.918-1.001l-0.114-0.372l2.459-3.718l1.431-3.805l-5.291-12.154l-1.688-1.144v-0.829
			h6.579v0.829l-1.087,1.172l3.089,7.923l3.174-8.352l-1.487-0.829v-0.743h5.205v0.743l-1.858,1.001l-0.028,0.028l-5.777,16.559
			l-0.199,4.176L246.24,196.228z"/>
		<path fill="#FFFFFF" d="M181.169,217.796c-3.432,0-6.893-2.574-6.893-7.236c0-5.291,3.661-7.636,6.864-7.636
			c1.173,0,3.433,0.058,5.062,1.316l-2.088,3.774h-0.458l-0.543-3.518c-0.973-0.485-2.23-0.114-2.859,0.229
			c-0.916,0.515-1.945,1.688-1.945,5.834v0.172v0.086c0.086,3.489,1.658,5.091,3.66,5.091c1.201,0,1.773-0.286,2.803-0.887
			l1.431-1.029l0.4,0.772l-1.315,1.859C184.087,217.31,183.314,217.796,181.169,217.796z"/>
		<path fill="#FFFFFF" d="M188.979,217.51v-0.629c0,0,2.26-0.057,2.26-4.633v-3.861c0-3.375-1.631-3.003-1.631-3.003v-0.858
			l4.404-1.315h0.343v2.946c0.688-0.944,2.632-3.232,5.062-3.232c0.887,0,1.545,0.344,2.06,0.601l-1.602,4.176h-0.972l-0.572-2.117
			c-1.917,0.258-3.434,2.089-3.977,2.718v5.205c0,0,0,0.115,0,0.286v2.346l1.573,0.543v0.829h-6.864H188.979z"/>
		<path fill="#FFFFFF" d="M208.829,204.726c-0.916-0.143-1.746-0.057-2.633,0.286c-0.285,0.086-0.514,0.229-0.714,0.372
			l-0.343,2.603l-0.715,0.372l-2.06-3.004l0.057-0.028c2.488-1.4,4.948-2.402,6.464-2.402c2.373,0,3.46,0.63,4.232,1.459
			c1.115,1.2,0.973,3.574,0.973,3.574v7.064l1.773,0.372v0.772l-4.806,1.658h-0.371v-2.202c-0.829,0.944-1.974,1.945-3.289,2.116
			c-3.118,0.4-4.576-1.343-4.947-2.974c-0.63-2.746,1.772-4.548,4.433-5.377c1.916-0.601,3.175-0.715,3.804-0.772v-0.658
			C210.688,206.442,210.259,204.983,208.829,204.726z M210.688,213.621v-3.433c-1.173,0.058-3.774,0.457-4.919,2.345
			c-0.915,1.545,0.4,2.774,1.486,2.889C208.942,215.594,210.03,214.593,210.688,213.621z"/>
		<path fill="#FFFFFF" d="M231.138,217.224c-2.173-1.029-2.116-3.603-2.116-3.918v-8.522l-6.407,0.686v10.726l1.574,0.486v0.829
			h-6.578v-0.829l1.602-0.629V205.04l-1.63-0.714v-1.116h1.63c-0.028-0.286-0.144-2.688,0.858-4.805
			c1.058-2.287,3.832-3.89,5.577-3.89c2.83,0,4.032,0.972,4.204,1.144h0.028v0.029h-0.028l-1.632,3.861h-0.886l-0.544-3.833
			c-1.457-0.286-3.202,0.888-3.66,2.431c-0.629,2.089-0.516,3.575-0.516,5.062h6.407v-0.028l1.659-3.946h1.744v3.946h4.262
			l-0.172,1.145l-4.09,0.972v5.863c0.028,0,0,0.229,0,0.571v1.115c0.028,0.802,0.114,1.659,0.4,2.116
			c0.601,0.916,1.487,1.059,3.031,0.4c0.43-0.172,0.744-0.485,0.744-0.485l0.943,1.029c0,0-0.686,0.973-1.744,1.459
			C234.741,217.853,232.882,218.053,231.138,217.224z"/>
		<path fill="#FFFFFF" d="M245.354,217.796c-3.433,0-6.893-2.574-6.893-7.236c0-5.291,3.661-7.636,6.864-7.636
			c3.231,0,6.436,1.431,6.436,6.894h0.027l-3.688,0.285h-5.921c0,0.144,0,0.286,0,0.457c0,4.376,1.916,5.349,3.976,5.349
			c1.202,0,1.974-0.286,3.202-0.887l1.403-1.029l0.399,0.772l-1.315,1.859C248.643,217.31,247.499,217.796,245.354,217.796z
			 M242.294,208.53h5.777c-0.029-3.004-1.201-4.09-2.746-4.09C244.009,204.44,242.665,205.298,242.294,208.53z"/>
		<path fill="#FFFFFF" d="M253.593,217.51v-0.629c0,0,2.259-0.057,2.259-4.633v-3.861c0-3.375-1.63-3.003-1.63-3.003v-0.858
			l4.404-1.315h0.343v2.946c0.687-0.944,2.632-3.232,5.062-3.232c0.888,0,1.545,0.344,2.061,0.601l-1.602,4.176h-0.973l-0.572-2.117
			c-1.916,0.258-3.432,2.089-3.976,2.718v5.205c0,0,0,0.115,0,0.286v2.346l1.573,0.543v0.829h-6.863H253.593z"/>
	</g>
	<path fill="#FFFFFF" d="M218.78,118.383c-0.613,0-1.166-0.419-1.312-1.04c-0.07-0.298-1.703-7.399-0.011-15.859
		c1.593-7.956-1.259-19.904-1.275-20.024c-0.1-0.739,1.603-0.98,2.342-1.08c0.737-0.1,2.057,0.103,2.156,0.841
		c0.069,0.509,1.104,12.398-0.576,20.792c-1.578,7.89-0.025,14.644-0.01,14.71c0.171,0.726-0.278,1.452-1.004,1.624
		C218.985,118.371,218.882,118.383,218.78,118.383z"/>
	<path fill="#FFFFFF" d="M220.099,239.39c0.157-0.728-0.305-1.446-1.033-1.604c-0.723-0.155-1.445,0.305-1.604,1.033
		c-0.051,0.237-1.254,5.844-1.109,9.44l0.523,12.948c-0.047,0.184-0.069,0.348-0.084,0.455c-0.065,0.479-0.151,1.274-0.256,2.362
		c-0.234,2.429-2.525,5.509-3.39,6.492c-0.492,0.559-0.439,1.411,0.12,1.903c0.256,0.227,2.963-1.335,3.944-2.926l0.522,4.381
		c0,0,0.067,2.664,0.949,2.664c1.143,0,1.446-1.677,1.446-1.677l-1.079-26.712C218.917,244.899,220.087,239.444,220.099,239.39z"/>
</g>
</svg>
