<?xml version="1.0" encoding="utf-8"?>
<!-- Generator: Adobe Illustrator 16.0.0, SVG Export Plug-In . SVG Version: 6.00 Build 0)  -->
<!DOCTYPE svg PUBLIC "-//W3C//DTD SVG 1.1//EN" "http://www.w3.org/Graphics/SVG/1.1/DTD/svg11.dtd">
<svg version="1.1"
	 id="svg3168" inkscape:version="0.48.4 r9939" sodipodi:docname="New document 4" xmlns:svg="http://www.w3.org/2000/svg" xmlns:sodipodi="http://sodipodi.sourceforge.net/DTD/sodipodi-0.dtd" xmlns:cc="http://creativecommons.org/ns#" xmlns:rdf="http://www.w3.org/1999/02/22-rdf-syntax-ns#" xmlns:dc="http://purl.org/dc/elements/1.1/" xmlns:inkscape="http://www.inkscape.org/namespaces/inkscape"
	 xmlns="http://www.w3.org/2000/svg" xmlns:xlink="http://www.w3.org/1999/xlink" x="0px" y="0px" width="541.438px"
	 height="541.438px" viewBox="0 0 541.438 541.438" enable-background="new 0 0 541.438 541.438" xml:space="preserve">
<sodipodi:namedview  inkscape:window-maximized="1" inkscape:window-width="1920" inkscape:snap-center="true" inkscape:window-x="-8" inkscape:pageopacity="0.0" inkscape:window-height="1018" fit-margin-bottom="0" inkscape:document-units="px" inkscape:current-layer="layer1" inkscape:object-nodes="true" inkscape:window-y="-8" fit-margin-right="0" inkscape:pageshadow="2" id="base" inkscape:zoom="0.24748737" fit-margin-top="0" inkscape:cx="-612.89609" borderopacity="1.0" fit-margin-left="0" bordercolor="#666666" showgrid="false" pagecolor="#ffffff" inkscape:cy="147.0455">
	</sodipodi:namedview>
<path fill="#A8A8A8" d="M270.719,0C121.203,0,0,121.203,0,270.719v270.469h62.844v-62.812v-83.75V270.719
	c0-114.8,93.075-207.875,207.875-207.875c114.801,0,207.875,93.075,207.875,207.875c0,111.571-87.922,202.592-198.25,207.625
	c-35.055-0.287-64.941-5.977-78.031-14.031v-89.344c19.537,12.792,42.904,20.25,68,20.25c68.641,0,124.281-55.641,124.281-124.281
	c0-68.641-55.641-124.312-124.281-124.312c-68.641,0-124.281,55.671-124.281,124.312v270.25h113.344
	c3.761,0.155,7.545,0.25,11.344,0.25c149.516,0,270.719-121.203,270.719-270.719S420.234,0,270.719,0z M270.719,478.594
	c-2.917,0-5.831-0.1-8.719-0.219h17.875C276.837,478.507,273.789,478.594,270.719,478.594z"/>
</svg>
