<?xml version="1.0" encoding="utf-8"?>
<!-- Generator: Adobe Illustrator 16.0.0, SVG Export Plug-In . SVG Version: 6.00 Build 0)  -->
<!DOCTYPE svg PUBLIC "-//W3C//DTD SVG 1.1//EN" "http://www.w3.org/Graphics/SVG/1.1/DTD/svg11.dtd">
<svg version="1.1" id="Layer_1" xmlns="http://www.w3.org/2000/svg" xmlns:xlink="http://www.w3.org/1999/xlink" x="0px" y="0px"
	 width="61.321px" height="11.574px" viewBox="0 0 61.321 11.574" enable-background="new 0 0 61.321 11.574" xml:space="preserve">
<path fill="#A8A8A8" d="M58.738,11.525c1.151,0.248,2.288-0.482,2.535-1.635c0.247-1.143-0.481-2.284-1.634-2.535
	c-0.373-0.08-9.239-1.982-14.924-1.753L24.241,6.429c-0.29-0.074-0.55-0.109-0.72-0.133c-0.756-0.104-2.013-0.239-3.733-0.404
	c-3.841-0.371-8.711-3.993-10.265-5.359c-0.883-0.778-2.232-0.695-3.011,0.19c-0.357,0.404,2.112,4.685,4.626,6.236L4.213,7.785
	c0,0-4.213,0.106-4.213,1.501c0,1.807,2.653,2.286,2.653,2.286l42.232-1.705C50.027,9.656,58.651,11.505,58.738,11.525z"/>
</svg>
