<?xml version="1.0" encoding="utf-8"?>
<!-- Generator: Adobe Illustrator 16.0.0, SVG Export Plug-In . SVG Version: 6.00 Build 0)  -->
<!DOCTYPE svg PUBLIC "-//W3C//DTD SVG 1.1//EN" "http://www.w3.org/Graphics/SVG/1.1/DTD/svg11.dtd">
<svg version="1.1" id="Layer_1" xmlns="http://www.w3.org/2000/svg" xmlns:xlink="http://www.w3.org/1999/xlink" x="0px" y="0px"
	 width="1224px" height="7.667px" viewBox="0 0 1224 7.667" enable-background="new 0 0 1224 7.667" xml:space="preserve">
<g>
	<g>
		<g>
			<path fill="none" stroke="#FFFFFF" stroke-linecap="round" stroke-linejoin="round" d="M-6.753,4.407
				c0.004,0.035,28.007-2.974,28.01-2.943c0.058,0.547,50.691,3.584,50.756,4.207c0.007,0.062,32.305-3.512,32.317-3.396
				c0.227,2.164,151.332,2.83,151.468,4.129c0.012,0.116,35.161-3.771,35.168-3.696c0.067,0.641,80.178,2.118,80.291,3.196
				c0.014,0.132,37.246-3.983,37.253-3.916c0.058,0.547,73.468,3.384,73.583,4.474c0.012,0.111,35.731-3.887,35.745-3.756
				c0.051,0.488,80.757,2.086,80.846,2.938c0.01,0.09,39.431-4.235,39.44-4.146c0.151,1.44,144.749,2.101,144.951,4.022
				c0.011,0.108,31.109-3.321,31.114-3.271c0.062,0.587,42.41,3.232,42.456,3.664c0.012,0.112,37.675-4.081,37.688-3.961
				c0.098,0.931,169.062,1.402,169.247,3.161c0.008,0.076,31.471-3.422,31.482-3.31c0.024,0.229,25.39,4.28,25.421,4.581
				c0.011,0.097,37.695-4.052,37.704-3.963c0.03,0.281,47.631,2.971,47.699,3.612c0.003,0.03,37.101-3.921,37.103-3.899"/>
		</g>
	</g>
</g>
</svg>
